<svg width="32" height="14" viewBox="0 0 32 14" fill="none" xmlns="http://www.w3.org/2000/svg">
<g clip-path="url(#clip0_363_255)">
<path fill-rule="evenodd" clip-rule="evenodd" d="M5.85295 1.80535C6.21756 1.31938 6.46499 0.666818 6.39974 0C5.86599 0.0282998 5.2147 0.375236 4.83762 0.861622C4.49904 1.27812 4.19937 1.95798 4.27748 2.59686C4.87662 2.65224 5.47522 2.27772 5.85295 1.80535ZM6.39293 2.7216C5.8637 2.688 5.38267 2.88996 4.99351 3.05335C4.74285 3.15859 4.53031 3.24784 4.36751 3.24784C4.18802 3.24784 3.96741 3.15492 3.71925 3.05041C3.39265 2.91287 3.01835 2.75523 2.62729 2.76286C1.73156 2.77687 0.900428 3.31659 0.445858 4.17497C-0.489057 5.89221 0.199137 8.43944 1.1083 9.83801C1.54983 10.5299 2.08191 11.2918 2.78304 11.2644C3.09006 11.2516 3.31056 11.1525 3.53895 11.0498C3.80334 10.9309 4.07832 10.8073 4.51034 10.8073C4.92223 10.8073 5.18456 10.9271 5.43658 11.0422C5.67688 11.1519 5.90782 11.2573 6.2501 11.2506C6.97729 11.2367 7.43192 10.5583 7.87344 9.86573C8.35358 9.11798 8.56488 8.39465 8.59667 8.28581L8.6003 8.27355C8.59948 8.27269 8.59337 8.26969 8.58262 8.26443C8.41989 8.18473 7.19728 7.58589 7.1852 5.98882C7.17286 4.64842 8.14751 3.96871 8.30758 3.85708C8.31778 3.84997 8.32469 3.84515 8.3278 3.84263C7.70449 2.86019 6.73057 2.74943 6.39293 2.7216ZM15.0682 0.792008C16.9593 0.792008 18.2763 2.18119 18.2763 4.20374C18.2763 6.23352 16.9324 7.62999 15.0209 7.62999H12.9271V11.1783H11.4141V0.792008H15.0682ZM12.9271 6.27669H14.663C15.98 6.27669 16.7297 5.52102 16.7297 4.21097C16.7297 2.90107 15.98 2.15245 14.6696 2.15245H12.9271V6.27669ZM21.3601 6.81663C19.604 6.93172 18.6517 7.69467 18.6517 9.02637C18.6517 10.365 19.631 11.2575 21.0358 11.2575C21.9881 11.2575 22.8663 10.7465 23.2648 9.93324H23.2984V11.1783H24.6967V6.01039C24.6967 4.51335 23.5687 3.54886 21.8396 3.54886C20.2321 3.54886 19.0434 4.52764 19.0028 5.87366H20.3672C20.482 5.23306 21.0358 4.8156 21.7992 4.8156C22.7243 4.8156 23.2444 5.27626 23.2444 6.11841V6.69416L21.3601 6.81663ZM23.2444 7.77381V8.35692C23.2444 9.32848 22.4677 10.0268 21.4411 10.0268C20.6374 10.0268 20.1241 9.61643 20.1241 8.98306C20.1241 8.32804 20.6171 7.95375 21.5626 7.88904L23.2444 7.77381ZM25.982 12.7116V13.9567C26.0832 13.9856 26.4548 14 26.5695 14C28.042 14 28.7377 13.4025 29.3455 11.5815L32 3.64243H30.46L28.6768 9.77471H28.6431L26.86 3.64243H25.2795L27.8394 11.2L27.7043 11.6606C27.4746 12.4381 27.0964 12.7402 26.4277 12.7402C26.3062 12.7402 26.0766 12.7258 25.982 12.7116Z" fill="#090909"/>
</g>
<defs>
<clipPath id="clip0_363_255">
<rect width="32" height="14" fill="white"/>
</clipPath>
</defs>
</svg>
