<svg width="32" height="14" viewBox="0 0 32 14" fill="none" xmlns="http://www.w3.org/2000/svg">
<g clip-path="url(#clip0_363_258)">
<path d="M14.5605 7.00507V10.7548H13.4153V1.49512H16.4514C17.2209 1.49512 17.877 1.76163 18.4139 2.29465C18.9627 2.82767 19.237 3.47845 19.237 4.247C19.237 5.03413 18.9627 5.68491 18.4139 6.21173C17.883 6.73855 17.2268 6.99888 16.4514 6.99888H14.5605V7.00507ZM14.5605 2.63554V5.86465H16.4752C16.9286 5.86465 17.3104 5.70351 17.6086 5.38741C17.9128 5.07132 18.0679 4.68705 18.0679 4.2532C18.0679 3.82554 17.9128 3.44747 17.6086 3.13138C17.3104 2.80288 16.9346 2.64173 16.4752 2.64173H14.5605V2.63554ZM22.231 4.20981C23.0781 4.20981 23.7461 4.44533 24.2352 4.91638C24.7244 5.38741 24.969 6.032 24.969 6.85013V10.7548H23.8773V9.87473H23.8297C23.3584 10.5998 22.7261 10.9594 21.9387 10.9594C21.2647 10.9594 20.704 10.7548 20.2507 10.3395C19.7973 9.92425 19.5707 9.40984 19.5707 8.79008C19.5707 8.13309 19.8093 7.61247 20.2864 7.2282C20.7637 6.83773 21.4019 6.64559 22.1952 6.64559C22.8752 6.64559 23.436 6.77575 23.8714 7.03606V6.76335C23.8714 6.34809 23.7163 6.00101 23.4002 5.7097C23.084 5.41841 22.7142 5.27585 22.2907 5.27585C21.6524 5.27585 21.1454 5.55476 20.7756 6.11877L19.7675 5.46179C20.3222 4.62507 21.1454 4.20981 22.231 4.20981ZM20.7517 8.80863C20.7517 9.11856 20.877 9.37887 21.1335 9.58344C21.384 9.78793 21.6823 9.89328 22.0223 9.89328C22.5055 9.89328 22.9349 9.70734 23.3107 9.33547C23.6865 8.96359 23.8773 8.52976 23.8773 8.02773C23.5195 7.73642 23.0244 7.58767 22.3861 7.58767C21.9209 7.58767 21.5332 7.70544 21.2229 7.93476C20.9068 8.17648 20.7517 8.46778 20.7517 8.80863ZM31.1964 4.41434L27.3789 13.5377H26.1979L27.6175 10.3457L25.1003 4.41434H26.347L28.1603 8.96359H28.1841L29.9498 4.41434H31.1964Z" fill="black"/>
<path d="M10.0046 6.24906C10.0046 5.86108 9.9712 5.48981 9.90922 5.13281H5.10864V7.17812L7.87338 7.17875C7.76123 7.85928 7.40036 8.4394 6.84741 8.82618V10.1531H8.49314C9.45407 9.22903 10.0046 7.863 10.0046 6.24906Z" fill="#4285F4"/>
<path d="M6.84861 8.82582C6.39051 9.14686 5.80057 9.33464 5.11043 9.33464C3.77728 9.33464 2.64633 8.40125 2.24131 7.14307H0.543701V8.51157C1.38476 10.2458 3.11339 11.4358 5.11043 11.4358C6.49072 11.4358 7.6503 10.9641 8.49435 10.1521L6.84861 8.82582Z" fill="#34A853"/>
<path d="M2.08115 6.128C2.08115 5.77471 2.13783 5.43321 2.24102 5.11216V3.74365H0.543403C0.195648 4.46075 0 5.2702 0 6.128C0 6.98579 0.196245 7.79524 0.543403 8.51234L2.24102 7.14384C2.13783 6.82279 2.08115 6.48128 2.08115 6.128Z" fill="#FABB05"/>
<path d="M5.11043 2.92043C5.8638 2.92043 6.53843 3.19004 7.0711 3.71686L8.52955 2.20271C7.64373 1.34554 6.48892 0.819336 5.11043 0.819336C3.11398 0.819336 1.38476 2.00933 0.543701 3.74351L2.24131 5.11201C2.64633 3.85383 3.77728 2.92043 5.11043 2.92043Z" fill="#E94235"/>
</g>
<defs>
<clipPath id="clip0_363_258">
<rect width="32" height="14" fill="white"/>
</clipPath>
</defs>
</svg>
