<svg width="36" height="12" viewBox="0 0 36 12" fill="none" xmlns="http://www.w3.org/2000/svg">
<path d="M18.1483 2.08976C18.1483 1.55971 18.6259 1.12891 19.1878 1.12891C19.7497 1.12891 20.2273 1.56197 20.2273 2.08976C20.2273 2.61756 19.7667 3.06189 19.1878 3.06189C18.609 3.06189 18.1483 2.6311 18.1483 2.08976ZM15.0637 1.26423H16.8725V10.7375H15.0637V1.26423ZM20.1019 3.97087H18.2786V10.7375H20.1019V3.97087ZM33.2098 7.12413C34.5821 6.3347 35.5153 5.15958 35.8846 3.96867H34.0612C33.586 5.1054 32.4959 5.96027 31.2973 6.32343V1.26198H29.474V10.7352H31.2973V7.91809C32.6888 8.24287 33.7886 9.36841 34.1649 10.7352H36.0002C35.7203 9.30071 34.6713 7.95867 33.2098 7.12413ZM23.3336 4.72878C23.8111 4.13552 24.7421 3.79042 25.4969 3.79042C26.9055 3.79042 28.0703 4.75357 28.0727 6.20836V10.7352H26.2494V6.58505C26.2494 5.98733 25.9648 5.29711 25.0411 5.29711C23.9558 5.29711 23.3312 6.19709 23.3312 7.25047V10.7398H21.508V3.9754H23.3336V4.72878Z" fill="#011E0F"/>
<path d="M6 12C9.31366 12 12 9.3137 12 6C12 2.68631 9.31366 0 6 0C2.68627 0 0 2.68631 0 6C0 9.3137 2.68627 12 6 12Z" fill="#00D66F"/>
<path d="M5.80054 3H4C4.35026 4.25397 5.37316 5.32597 6.65296 5.99997C5.37083 6.67402 4.35026 7.74602 4 9H5.80054C6.24656 7.83996 7.48201 6.83201 9 6.62598V5.372C7.47968 5.16797 6.24423 4.16002 5.80054 3Z" fill="#011E0F"/>
</svg>
