<svg width="18" height="18" viewBox="0 0 18 18" fill="none" xmlns="http://www.w3.org/2000/svg">
<path d="M15.8419 13.355C16.2955 13.4012 16.6494 13.7839 16.6496 14.2497C16.6496 14.7156 16.2956 15.0991 15.8419 15.1453L15.7496 15.1497H2.24961C1.75273 15.1495 1.34961 14.7467 1.34961 14.2497C1.34977 13.7529 1.75283 13.3499 2.24961 13.3497H15.7496L15.8419 13.355ZM13.4996 3.59998C13.9371 3.59998 14.3565 3.77414 14.6659 4.08337C14.9753 4.39274 15.1492 4.81219 15.1493 5.24968V11.25C15.1493 11.6876 14.9753 12.1069 14.6659 12.4163C14.3565 12.7256 13.9371 12.8997 13.4996 12.8997H4.49961C4.06214 12.8996 3.64265 12.7256 3.3333 12.4163C3.02399 12.1069 2.8499 11.6875 2.8499 11.25V5.24968C2.84998 4.81227 3.02405 4.39272 3.3333 4.08337L3.45371 3.97351C3.74724 3.73299 4.11681 3.60007 4.49961 3.59998H13.4996ZM4.6499 11.0997H13.3493V5.39998H4.6499V11.0997Z" fill="#1B1D2A"/>
</svg>
