<svg width="26" height="18" viewBox="0 0 26 18" fill="none" xmlns="http://www.w3.org/2000/svg">
<g clip-path="url(#clip0_363_234)">
<path d="M22.9412 0H3.05882C1.36948 0 0 1.34314 0 3V15C0 16.6568 1.36948 18 3.05882 18H22.9412C24.6305 18 26 16.6568 26 15V3C26 1.34314 24.6305 0 22.9412 0Z" fill="black"/>
<path d="M16.6967 14.5563C19.7704 14.5563 22.2622 12.1124 22.2622 9.0977C22.2622 6.08304 19.7704 3.63916 16.6967 3.63916C13.6229 3.63916 11.1311 6.08304 11.1311 9.0977C11.1311 12.1124 13.6229 14.5563 16.6967 14.5563Z" fill="#F9A000"/>
<path d="M9.27602 14.5563C12.3498 14.5563 14.8416 12.1124 14.8416 9.0977C14.8416 6.08304 12.3498 3.63916 9.27602 3.63916C6.20224 3.63916 3.71045 6.08304 3.71045 9.0977C3.71045 12.1124 6.20224 14.5563 9.27602 14.5563Z" fill="#ED0006"/>
<path fill-rule="evenodd" clip-rule="evenodd" d="M12.9872 5.02979C14.1253 6.02926 14.8415 7.48142 14.8415 9.09764C14.8415 10.7139 14.1253 12.166 12.9872 13.1655C11.8476 12.1667 11.1311 10.7143 11.1311 9.09764C11.1311 7.52999 11.8049 6.11674 12.8839 5.12117L12.9872 5.02979Z" fill="#FF5D00"/>
</g>
<defs>
<clipPath id="clip0_363_234">
<rect width="26" height="18" fill="white"/>
</clipPath>
</defs>
</svg>
