<svg width="152" height="23" viewBox="0 0 152 23" fill="none" xmlns="http://www.w3.org/2000/svg">
<path d="M26.1339 10.1699C24.9899 12.6623 23.3311 14.7537 21.3253 16.5948C20.8886 16.9959 20.4387 17.3797 19.8915 17.8648C19.8438 17.5981 19.8101 17.3291 19.7904 17.0589C19.7809 15.9473 19.7904 14.8358 19.779 13.7242C19.767 13.5023 19.804 13.2804 19.8874 13.0744C19.9708 12.8684 20.0985 12.6834 20.2613 12.5325C21.2515 11.5529 22.0965 10.4364 22.7705 9.21689C23.5599 7.84559 24.0194 6.37879 23.8402 4.76494C23.7904 4.24045 23.6017 3.73879 23.2937 3.31173C22.9856 2.88467 22.5694 2.54769 22.0879 2.33558C21.4287 2.03377 20.7224 1.84836 20.0001 1.78747C17.7255 1.56974 15.6148 2.23244 13.567 3.14345C10.402 4.55896 7.57063 6.62717 5.2577 9.21306C3.91158 10.6989 2.76186 12.3319 2.27756 14.3201C2.08689 15.1375 1.83712 15.9759 2.146 16.8449C2.49492 17.8304 2.93536 18.1819 3.96497 18.1819C4.76124 18.168 5.53605 17.921 6.19388 17.4714C7.62961 16.5546 8.78696 15.3304 9.88902 14.0623C12.3662 11.2213 14.6161 8.18922 16.6177 4.99416C16.696 4.89097 16.782 4.79392 16.8751 4.70386C17.0658 5.41433 17.1306 18.3996 16.9456 19.9619C15.9408 20.4604 14.8902 21.041 13.792 21.5146C12.3449 22.1581 10.8169 22.6008 9.25028 22.8305C7.67155 23.0463 6.07948 23.1075 4.52935 22.7026C1.63501 21.9386 -0.0466802 19.9333 0.000986754 16.8393C0.0238669 14.9771 0.611123 13.2811 1.50726 11.6978C3.26903 8.5828 5.75343 6.12673 8.66874 4.09079C11.0254 2.44448 13.5632 1.17822 16.3679 0.500207C17.9447 0.118231 19.5425 -0.124327 21.1689 0.0666607C22.8296 0.257649 24.3798 0.72175 25.5962 1.97654C26.5116 2.91745 27.0491 4.16295 27.1063 5.47546C27.215 7.12369 26.8165 8.6783 26.1339 10.1699Z" fill="#3743BA"/>
<path d="M45.1511 8.70874C44.5944 6.81414 43.477 5.32823 41.6867 4.39048C40.5924 3.80689 39.3759 3.49083 38.1364 3.46804C36.8018 3.43939 35.4671 3.44509 34.1324 3.43936C33.3431 3.43936 32.5556 3.43936 31.69 3.43936V19.4824C31.8589 19.5132 32.0296 19.5343 32.201 19.5454C34.0733 19.5454 35.9457 19.5817 37.8161 19.5301C38.6373 19.5077 39.4529 19.3866 40.2452 19.1692C42.7983 18.4587 44.4228 16.7742 45.1587 14.234C45.6913 12.4305 45.6887 10.5108 45.1511 8.70874ZM40.8096 13.9475C40.3196 15.1107 39.4578 15.7849 38.2394 15.9338C37.4958 16.0255 36.7331 15.951 35.898 15.951V7.03186C36.8511 6.88129 37.825 6.93072 38.758 7.17701C40.0164 7.49596 40.7505 8.46235 41.0346 9.64457C41.3816 11.0751 41.4064 12.5342 40.8096 13.9475Z" fill="#3743BA"/>
<path d="M57.3176 19.5053H46.4019C46.2875 18.3995 46.358 17.328 46.3447 16.2585C46.3313 15.189 46.3447 14.1577 46.3447 13.1168V9.86997C46.3447 8.82144 46.3333 7.76906 46.3447 6.72626C46.3561 5.68347 46.2818 4.58147 46.4114 3.47946H57.127C57.3939 4.1441 57.4416 5.67204 57.2147 6.94784C55.0697 7.00132 52.8979 6.93255 50.6462 6.98985V9.77825H56.4291C56.5311 10.9081 56.5254 12.0452 56.412 13.174H50.6404V16.0083H57.3138C57.3798 17.173 57.3811 18.3405 57.3176 19.5053Z" fill="#3743BA"/>
<path d="M82.1845 4.19183C82.1674 3.94944 82.1317 3.70877 82.0778 3.47185H76.4073C76.3395 3.54794 76.2759 3.62763 76.2166 3.71059C75.1241 5.44858 74.0392 7.19035 72.941 8.92453C71.9419 10.5021 70.9904 12.1141 69.9036 13.6305C68.7596 15.2195 67.301 16.2871 65.1712 16.0675C63.8556 15.9319 62.8928 15.3417 62.3112 14.1729C61.4933 12.5266 61.5199 10.8 62.0157 9.08306C62.1376 8.68633 62.339 8.31863 62.6074 8.00241C62.8759 7.6862 63.2059 7.42812 63.5773 7.24387C65.1998 6.36532 67.0531 7.05287 67.688 8.76221C67.7834 9.02387 67.9035 9.27404 68.0217 9.55097H72.102C72.0124 9.06968 71.9552 8.69919 71.8713 8.33631C71.204 5.44284 69.1524 3.59787 66.2333 3.19679C65.3839 3.09863 64.5248 3.12245 63.6821 3.26748C61.2263 3.63227 59.4588 4.96919 58.3263 7.18465C57.7028 8.40125 57.4892 9.71523 57.3996 11.0407C57.3006 12.4739 57.5288 13.9108 58.067 15.2424C59.0203 17.6011 60.7878 19.1004 63.2817 19.6524C65.7185 20.189 68.0865 19.9713 70.2449 18.6459C71.0934 18.1225 71.8141 17.3891 72.6473 16.7092H77.986C78.2148 17.6641 77.9059 18.6191 78.1977 19.5893C79.5323 19.5416 80.8117 19.6199 82.1235 19.5339C82.1521 19.2455 82.1883 19.0603 82.1883 18.875C82.1896 13.9781 82.1883 9.08368 82.1845 4.19183ZM78.007 13.3134H74.575L78.007 7.74423V13.3134Z" fill="#3743BA"/>
<path d="M110.121 3.47947V19.3945C109.336 19.6103 107.032 19.6218 106.062 19.3945C106.029 17.351 106.073 15.2711 106.028 13.1378H100.664C100.627 13.3808 100.603 13.6256 100.592 13.8712C100.592 15.3991 100.592 16.927 100.592 18.4434C100.592 18.7834 100.557 19.1233 100.536 19.4958H96.4331V3.45275C97.7678 3.41455 99.0853 3.43745 100.521 3.43745C100.666 5.4753 100.51 7.46348 100.607 9.49559H106.037V3.46422C107.438 3.4222 108.748 3.41835 110.121 3.47947Z" fill="#3743BA"/>
<path d="M95.373 3.50241V6.965H91.4415V19.4308C90.6959 19.6523 90.0324 19.534 89.3784 19.5531C88.7244 19.5722 88.0437 19.5531 87.426 19.5531C87.0866 19.1711 87.2067 18.7738 87.2048 18.4071C87.2048 15.0075 87.2048 11.6098 87.2048 8.21024V7.09108C85.8987 6.82561 84.627 7.10251 83.3914 6.92107C83.1474 6.25071 83.115 4.5853 83.3323 3.49858L95.373 3.50241Z" fill="#3743BA"/>
<path d="M121.71 16.0427V19.3754C120.987 19.597 112.619 19.6562 111.324 19.4404C111.219 18.4052 111.292 17.3395 111.279 16.2681C111.265 15.1966 111.279 14.1672 111.279 13.1244V9.87757C111.279 8.82904 111.279 7.7767 111.279 6.732C111.279 5.68729 111.218 4.5872 111.336 3.4852H115.49V15.9816C117.599 16.0675 119.615 15.9892 121.71 16.0427Z" fill="#3743BA"/>
<path d="M137.059 8.61899C136.267 6.012 134.603 4.32748 132.042 3.50623C130.644 3.07323 129.161 2.99644 127.726 3.28279C125.3 3.73543 123.399 4.97112 122.242 7.23624C121.575 8.53878 121.321 9.91006 121.186 11.3807C121.376 12.4368 121.472 13.514 121.758 14.5434C121.98 15.4069 122.372 16.2175 122.91 16.928C123.448 17.6384 124.122 18.2347 124.892 18.6821C127.256 20.0725 129.792 20.2635 132.391 19.3792C134.632 18.6153 136.18 17.0874 136.937 14.8719C137.649 12.8552 137.691 10.6621 137.059 8.61899ZM132.178 14.9063C130.414 16.9652 126.885 16.3273 125.949 13.7814C125.432 12.366 125.413 10.8167 125.893 9.38868C126.423 7.70989 127.743 6.86763 129.516 6.90583C131.201 6.94594 132.527 7.93144 132.948 9.53001C133.078 10.1478 133.176 10.7719 133.242 11.3998C133.182 12.6813 133.043 13.896 132.178 14.9063Z" fill="#3743BA"/>
<path d="M151.996 18.6057C151.996 18.8846 151.958 19.1634 151.933 19.4976H147.828C146.075 16.5851 144.302 13.6343 142.527 10.6854L142.376 10.7217V19.364C141.583 19.6027 139.375 19.6275 138.46 19.4346C138.269 18.6936 138.258 4.50698 138.46 3.49856C139.147 3.38779 139.869 3.45845 140.584 3.44508C141.299 3.43171 141.974 3.44508 142.682 3.44508L147.778 11.925L147.99 11.8352V3.51003H151.914C151.942 3.80988 151.998 4.11355 151.998 4.41722C152.001 9.14736 152.001 13.8769 151.996 18.6057Z" fill="#3743BA"/>
</svg>
