<svg width="160" height="60" viewBox="0 0 160 60" fill="none" xmlns="http://www.w3.org/2000/svg">
<g clip-path="url(#clip0_286_492)">
<path d="M49.7791 22.8865L54.8341 37.539H52.0558L51.0034 34.2916H45.787L44.7346 37.539H41.9739L47.0289 22.8865H49.7791ZM46.5272 31.8756H50.1825L48.3198 26.2157L46.5272 31.8756Z" fill="black"/>
<path d="M56.9353 37.5359V22.9175H63.3233C65.9262 22.9175 67.4943 24.4679 67.4943 26.1342V29.2351C67.4943 30.4141 66.6664 31.5318 65.2773 32.0804L67.8205 37.5086H64.8914L62.4954 32.3973H59.7171V37.5086H56.9388L56.9353 37.5359ZM59.7417 25.3573V30.012H63.1128C64.0004 30.012 64.7405 29.5247 64.7405 28.649V26.7237C64.7405 25.8343 63.9723 25.3607 62.9866 25.3607L59.7417 25.3573Z" fill="black"/>
<path d="M73.0226 37.5362V25.3304H69.2971V22.9451H79.2317V25.3304H75.7904V37.5362H73.0226Z" fill="black"/>
<path d="M82.5713 33.3721V34.3194C82.5713 35.6109 83.8131 36.5889 85.4093 36.5889H87.1843C88.8401 36.5889 90.1134 35.8119 90.1134 34.4625V33.4403C90.1134 31.2015 81.8031 30.7688 81.8031 26.9216V25.5995C81.8031 24.1342 83.2519 22.8428 85.1742 22.8428H87.1562C89.3136 22.8428 90.9133 24.2501 90.9133 25.8312V27.1533H89.6714V26.0629C89.6714 24.8566 88.5173 23.9366 87.0685 23.9366H85.3531C84.0832 23.9366 83.0484 24.7408 83.0484 25.8039V26.8671C83.0484 29.7397 91.3588 30.1145 91.3588 33.2733V34.6806C91.3588 36.5173 89.6048 37.6691 87.279 37.6691H85.3566C83.0203 37.6691 81.3049 36.2038 81.3049 34.5102V33.3892L82.5713 33.3721Z" fill="black"/>
<path d="M97.5926 37.5362V24.0082H93.3831V22.9451H102.855V24.0082H98.8344V37.5362H97.5926Z" fill="black"/>
<path d="M109.54 22.8596L114.834 37.536H113.592L111.922 32.854H105.903L104.247 37.536H102.977L108.299 22.8596H109.54ZM106.289 31.7636H111.522L108.92 24.4101L106.289 31.7636Z" fill="black"/>
<path d="M119.24 37.5362V24.0082H115.031V22.9451H124.502V24.0082H120.482V37.5362H119.24Z" fill="black"/>
<path d="M127.284 37.5362V22.9451H128.526V37.5362H127.284Z" fill="black"/>
<path d="M136.243 37.6517C134.174 37.6517 132.693 36.1864 132.693 34.4929V25.974C132.693 24.2702 134.202 22.8152 136.243 22.8152H139.229C141.27 22.8152 142.737 24.2804 142.737 25.974V34.4929C142.737 36.1967 141.26 37.6517 139.229 37.6517H136.243ZM139.113 36.5613C139.425 36.569 139.735 36.516 140.025 36.4054C140.316 36.2949 140.58 36.1289 140.804 35.9174C141.027 35.7059 141.204 35.4531 141.326 35.1739C141.447 34.8947 141.509 34.5948 141.509 34.2918V26.1955C141.509 25.8925 141.447 25.5926 141.326 25.3134C141.204 25.0342 141.027 24.7814 140.804 24.5699C140.58 24.3584 140.316 24.1925 140.025 24.0819C139.735 23.9713 139.425 23.9183 139.113 23.9261H136.307C135.995 23.9183 135.685 23.9713 135.394 24.0819C135.104 24.1925 134.839 24.3584 134.616 24.5699C134.393 24.7814 134.215 25.0342 134.094 25.3134C133.973 25.5926 133.911 25.8925 133.911 26.1955V34.3259C133.911 34.6289 133.973 34.9288 134.094 35.208C134.215 35.4872 134.393 35.74 134.616 35.9515C134.839 36.163 135.104 36.3289 135.394 36.4395C135.685 36.5501 135.995 36.6031 136.307 36.5953H139.113V36.5613Z" fill="black"/>
<path d="M146.918 37.5359V22.9447H148.22L155.772 35.396V22.9175H157.014V37.5086H155.713L148.16 25.0438V37.5086H146.918V37.5359Z" fill="black"/>
<path d="M3 37.5359L5.63098 41.9657C5.89224 42.4729 6.29242 42.9003 6.78754 43.2009C7.28266 43.5015 7.85352 43.6636 8.43736 43.6695H25.9772L22.371 37.5359H3Z" fill="#13AFF0"/>
<path d="M34.284 37.5668C34.2855 36.976 34.1113 36.3974 33.7823 35.9005L23.4934 18.5526C23.2285 18.0593 22.8295 17.646 22.3396 17.3576C21.8498 17.0692 21.2879 16.9168 20.7151 16.917H15.2708L31.1513 43.6288L33.6631 39.4069C34.1366 38.5993 34.284 38.2551 34.284 37.5668Z" fill="#13AFF0"/>
<path d="M19.7645 33.1711L12.6679 21.2446L5.57129 33.1711H19.7645Z" fill="#13AFF0"/>
</g>
<defs>
<clipPath id="clip0_286_492">
<rect width="154" height="26.7425" fill="white" transform="translate(3 16.9131)"/>
</clipPath>
</defs>
</svg>
