<svg width="152" height="58" viewBox="0 0 152 58" fill="none" xmlns="http://www.w3.org/2000/svg">
<g clip-path="url(#clip0_286_508)">
<path d="M28.4885 0.125488C12.8261 0.125488 0.0617676 13.0014 0.0617676 28.94C0.0617676 44.8786 12.8261 57.7544 28.4885 57.7544C44.151 57.7544 56.9153 44.816 56.9153 28.94C56.9153 13.0639 44.2127 0.125488 28.4885 0.125488ZM52.4139 28.94C52.4139 42.3159 41.6845 53.1916 28.4885 53.1916C15.2926 53.1916 4.56319 42.2534 4.56319 28.94C4.56319 15.6265 15.3543 4.6883 28.4885 4.6883C41.6228 4.6883 52.4139 15.564 52.4139 28.94Z" fill="#009CFF"/>
<path d="M19.8559 24.5647C18.9926 24.2522 17.9443 24.0647 16.6494 24.0647H8.38648C7.83151 24.0647 7.52319 24.3772 7.52319 24.9398V34.8779C7.52319 35.378 7.83151 35.5655 8.0165 35.6905C8.07816 35.6905 8.26315 35.753 8.94145 35.753C9.61975 35.753 9.80474 35.4405 9.80474 34.8779V31.6902L18.9926 35.6905C19.1776 35.6905 19.4242 35.753 19.7942 35.753C20.6575 35.753 21.1508 35.503 21.1508 34.9404C21.1508 34.3779 20.9658 34.3154 20.5341 34.1279L14.2445 31.4402H17.0193C18.1293 31.4402 19.1159 31.2527 19.9792 30.8777C21.0891 30.3776 21.6441 29.5651 21.6441 28.5025V27.1274C21.6441 26.0023 21.0275 25.1273 19.7942 24.6272L19.8559 24.5647ZM19.4242 27.0024V28.44C19.4242 29.065 18.6226 29.3776 17.0193 29.3776H9.8664V26.0023H16.6494C18.4993 26.0023 19.4242 26.3149 19.4242 27.0024Z" fill="black"/>
<path d="M34.5313 30.8769C34.963 30.8769 35.3946 30.6894 35.3946 29.8144C35.3946 28.9393 35.0863 28.8768 34.5313 28.8768H24.7269V27.0017C24.7269 26.2516 25.8368 25.8766 27.995 25.8766C30.1532 25.8766 28.18 25.8766 28.3033 25.8766C28.4267 25.8766 28.55 25.8766 28.6733 25.8766C28.6733 25.8766 28.735 25.8766 28.7966 25.8766H29.3516C29.9066 25.8766 30.2149 25.5641 30.2149 25.0015C30.2149 24.1265 29.7832 23.939 29.3516 23.939H27.3167C25.2818 23.939 23.8019 24.439 23.0003 25.4391C22.6303 25.8766 22.4453 26.4391 22.4453 27.0017V32.6896C22.4453 33.7521 23.0003 34.5647 24.1719 35.0647C25.0968 35.4398 26.0834 35.6273 27.1934 35.6273H34.5313C34.9013 35.6273 35.3946 35.4398 35.3946 34.5022C35.3946 33.5646 35.0863 33.6271 34.5313 33.6271H27.255C25.5901 33.6271 24.7269 33.2521 24.7269 32.5646V30.8144H34.4697L34.5313 30.8769Z" fill="black"/>
<path d="M49.7626 34.1897L44.6445 29.7519L49.5776 25.5016C49.8242 25.2515 50.0092 25.0015 50.0092 24.7515C50.0092 24.5015 49.8242 24.0015 49.0843 24.0015C48.3443 24.0015 48.036 24.1265 47.9127 24.189L43.0413 28.3768L38.1082 24.189C37.9849 24.064 37.7999 24.0015 37.5532 24.0015C36.8749 24.0015 36.6899 24.0015 36.6283 24.0015C36.0733 24.064 36.0117 24.439 36.0117 24.7515C36.0117 25.064 36.135 25.2515 36.4433 25.5016L41.438 29.7519L36.2583 34.1897C36.0117 34.4397 35.8267 34.6897 35.8267 34.9397C35.8267 35.1897 36.0116 35.6898 37.0599 35.6898C38.1082 35.6898 37.7999 35.6273 37.9849 35.5022L43.1029 31.1895L48.1593 35.5022C48.3443 35.6898 48.6526 35.7523 49.0226 35.7523C49.3926 35.7523 49.5159 35.7523 49.8242 35.5648C50.1942 35.4397 50.3175 35.1897 50.3175 34.8772C50.3175 34.5647 50.1942 34.3772 49.8859 34.1272L49.7626 34.1897Z" fill="black"/>
<path d="M67.5835 27.7522H65.3636C65.2403 26.6271 64.6236 25.9396 63.5137 25.9396C62.4038 25.9396 61.9721 26.3771 61.9721 27.2521C61.9721 28.1272 62.5271 28.6272 64.2537 29.0648C66.6585 29.6273 67.7068 30.7524 67.7068 32.5025C67.7068 34.2526 65.8569 35.7527 63.6987 35.7527C61.5405 35.7527 59.4439 34.5651 59.1973 32.315H61.4171C61.6638 33.5026 62.5887 34.1276 63.637 34.1276C64.6853 34.1276 65.4253 33.5651 65.4253 32.7525C65.4253 31.94 64.8703 31.3149 63.267 30.9399C61.0472 30.3774 59.6906 29.6273 59.6906 27.6272C59.6906 25.627 61.4788 24.4395 63.5754 24.4395C65.6719 24.4395 67.3368 25.9396 67.5835 27.8772V27.7522Z" fill="black"/>
<path d="M71.4067 25.0648C71.4067 25.7523 70.9134 26.2524 70.2351 26.2524C69.5568 26.2524 69.0635 25.8148 69.0635 25.0648C69.0635 24.3147 69.5568 23.8772 70.2351 23.8772C70.9134 23.8772 71.4067 24.3772 71.4067 25.0648ZM69.1251 35.503V27.0649H71.2834V35.503H69.1251Z" fill="black"/>
<path d="M85.7123 30.4395V35.5023H83.5541V31.127C83.5541 30.627 83.5541 30.1894 83.4924 29.7519C83.3691 28.8768 82.9375 28.3768 82.0742 28.3768C81.2109 28.3768 80.5326 29.1894 80.5326 31.1895V35.5023H78.3744V31.127C78.3744 30.627 78.3744 30.1894 78.3127 29.7519C78.1894 28.8768 77.6961 28.3768 76.8945 28.3768C76.0929 28.3768 75.4146 29.1894 75.4146 31.1895V35.5023H73.2563V27.0642H75.4146V28.3768L76.0312 27.3767C76.5245 27.0642 77.0795 26.8767 77.8194 26.8767C79.176 26.8767 80.0393 27.5643 80.3476 28.5018L81.1492 27.3767C81.6426 27.0642 82.1975 26.8767 82.9375 26.8767C84.5407 26.8767 85.404 27.8143 85.589 29.0019C85.6507 29.4394 85.6507 29.8769 85.6507 30.5645L85.7123 30.4395Z" fill="black"/>
<path d="M95.332 35.5028H93.1738V34.0652L92.5571 35.1278C91.9405 35.5653 91.3239 35.6903 90.5222 35.6903C88.7957 35.6903 87.7474 34.6902 87.5624 33.5651C87.5007 33.1276 87.5007 32.6901 87.5007 32.0025V27.0022H89.6589V31.5025C89.6589 31.7525 89.659 32.2526 89.7206 32.6901C89.8439 33.5651 90.3373 34.1277 91.3239 34.1277C92.3105 34.1277 93.1738 33.2526 93.1738 31.315V27.0022H95.332V35.4403V35.5028Z" fill="black"/>
<path d="M99.4016 32.7526C99.4016 33.0651 99.4016 33.3151 99.4016 33.5026C99.4016 33.9401 99.6483 34.0652 100.388 34.0027V35.5028C99.9566 35.5028 99.525 35.5653 99.0316 35.5653C97.9834 35.5653 97.3051 35.1902 97.2434 34.0652C97.2434 33.6901 97.2434 33.3151 97.2434 32.7526V23.8145H99.4016V32.6901V32.7526Z" fill="black"/>
<path d="M106.554 34.2522L106.123 35.1273C105.568 35.5023 104.828 35.6898 104.026 35.6898C102.608 35.6898 101.375 34.8148 101.375 33.2521C101.375 31.6895 102.916 30.3769 105.938 30.3769H106.493V30.1894C106.493 29.9394 106.493 29.6894 106.493 29.3769C106.431 28.8143 106.061 28.3768 105.198 28.3768C104.335 28.3768 103.841 28.8768 103.78 29.8144H101.683C101.745 27.9393 103.286 26.8767 105.26 26.8767C107.233 26.8767 108.466 27.9393 108.589 29.3769C108.589 29.7519 108.589 30.1894 108.589 30.6895V33.4397C108.589 34.0647 108.589 34.6272 108.774 35.5648H106.678L106.493 34.3147L106.554 34.2522ZM106.554 32.3771V31.6895C104.828 31.5645 103.656 31.9396 103.656 33.0646C103.656 34.1897 104.15 34.1897 104.951 34.1897C105.753 34.1897 106.554 33.5647 106.554 32.3771Z" fill="black"/>
<path d="M113.276 32.4402C113.276 32.7527 113.276 32.9402 113.276 33.1903C113.338 34.0028 113.646 34.1903 114.818 34.1278V35.5654C114.324 35.6279 113.893 35.6904 113.399 35.6904C111.796 35.6904 111.179 35.1279 111.118 33.9403C111.118 33.5653 111.118 33.1903 111.118 32.6902V28.5024H109.885V27.0648H111.118V25.0022H113.276V27.0648H115.003V28.5024H113.276V32.3777V32.4402Z" fill="black"/>
<path d="M118.641 25.0648C118.641 25.7523 118.148 26.2524 117.469 26.2524C116.791 26.2524 116.298 25.8148 116.298 25.0648C116.298 24.3147 116.791 23.8772 117.469 23.8772C118.148 23.8772 118.641 24.3772 118.641 25.0648ZM116.359 35.503V27.0649H118.517V35.503H116.359Z" fill="black"/>
<path d="M128.63 31.2525C128.63 33.8152 127.088 35.6903 124.314 35.6903C121.539 35.6903 119.997 33.8152 119.997 31.2525C119.997 28.6898 121.539 26.8147 124.314 26.8147C127.088 26.8147 128.63 28.6898 128.63 31.2525ZM126.348 31.2525C126.348 29.4399 125.547 28.3773 124.252 28.3773C122.957 28.3773 122.155 29.4399 122.155 31.2525C122.155 33.0651 122.957 34.1277 124.252 34.1277C125.547 34.1277 126.348 33.0026 126.348 31.2525Z" fill="black"/>
<path d="M137.818 30.752V35.5023H135.66V31.0645C135.66 30.6895 135.66 30.3144 135.66 29.8769C135.598 29.0019 135.105 28.3768 134.056 28.3768C133.008 28.3768 132.207 29.3144 132.207 31.627V35.5023H130.048V27.0642H132.207V28.4393L132.823 27.4392C133.44 27.0017 134.056 26.8767 134.858 26.8767C136.646 26.8767 137.633 27.7518 137.818 29.2519C137.818 29.6894 137.88 30.1269 137.88 30.8145L137.818 30.752Z" fill="black"/>
<path d="M146.019 29.5019H143.861C143.737 28.7518 143.306 28.2518 142.566 28.2518C141.826 28.2518 141.579 28.6268 141.579 29.1269C141.579 29.6269 142.073 30.0644 143.491 30.4395C145.217 30.877 146.204 31.5645 146.204 33.1271C146.204 34.6898 144.662 35.6273 142.751 35.6273C140.839 35.6273 139.298 34.7523 139.051 32.8146H141.209C141.394 33.7522 142.011 34.1897 142.751 34.1897C143.491 34.1897 143.984 33.8772 143.984 33.2522C143.984 32.6271 143.429 32.2521 142.011 31.8771C140.469 31.502 139.421 30.8145 139.421 29.3144C139.421 27.8143 140.716 26.6892 142.751 26.6892C144.786 26.6892 145.896 27.8143 146.081 29.3769L146.019 29.5019Z" fill="black"/>
<path d="M151.569 33.7523C151.569 34.9399 150.767 35.815 149.534 35.815C148.301 35.815 147.499 34.9399 147.499 33.7523C147.499 32.5648 148.301 31.6897 149.534 31.6897C150.767 31.6897 151.569 32.5648 151.569 33.7523Z" fill="#009CFF"/>
</g>
<defs>
<clipPath id="clip0_286_508">
<rect width="152" height="58" fill="white"/>
</clipPath>
</defs>
</svg>
