<svg width="160" height="60" viewBox="0 0 160 60" fill="none" xmlns="http://www.w3.org/2000/svg">
<path d="M30.5328 32.9728L32.9794 26.6414H47.2271C47.2271 26.6414 47.4386 28.0976 47.4386 29.8071C47.4386 38.7976 41.5427 46.0878 31.7193 46.0878C21.8959 46.0878 16 38.7976 16 29.8071C16 20.8165 21.8959 13.5264 31.7193 13.5264C34.4833 13.5264 36.9345 14.1007 39.0317 15.1318L36.2401 22.3587C35.0306 21.522 33.5175 21.1014 31.7193 21.1014C29.3416 21.1014 27.4653 21.8386 26.1315 23.2903C24.7059 24.846 23.9194 27.1615 23.9194 29.8071C23.9194 32.4527 24.7059 34.7727 26.1315 36.3239C27.4607 37.7756 29.3416 38.5127 31.7193 38.5127C34.097 38.5127 35.8262 37.6399 37.3071 36.3239C38.6408 35.1345 39.0409 32.9728 39.0409 32.9728H30.5328Z" fill="#17171B"/>
<path d="M71.0155 46.0878H78.8773L67.0867 13.5264H59.2293L47.4387 46.0878H55.3006L63.158 24.3802L71.0155 46.0878Z" fill="#17171B"/>
<path d="M78.8772 13.5264L84.6516 29.2457H92.3509L86.5765 13.5264H78.8772Z" fill="#17171B"/>
<path d="M98.4126 29.8071L92.3508 46.0878H100.433L112.561 13.5264H104.479L98.4126 29.8071Z" fill="#17171B"/>
<path d="M136.141 46.0878H144L132.212 13.5264H124.349L112.561 46.0878H120.42L128.278 24.3802L136.141 46.0878Z" fill="#17171B"/>
</svg>
