<svg width="160" height="60" viewBox="0 0 160 60" fill="none" xmlns="http://www.w3.org/2000/svg">
<path d="M95.462 39.0779C94.4469 41.5532 93.1212 41.9965 91.354 41.9965C89.5858 41.9965 88.261 41.5541 87.245 39.0779L78.9822 19.4425H84.3711L88.9217 30.8101C90.0248 33.5511 90.8666 35.853 91.3953 37.5772C92.1541 35.2979 92.979 33.0413 93.869 30.8101L98.4195 19.4425H103.721L95.4586 39.0779H95.462ZM118.475 21.9187C117.414 19.4425 116.134 19 114.367 19C112.6 19 111.361 19.3967 110.258 21.9187L101.776 41.5541H107.033L108.623 37.5728H120.066L121.655 41.5541H126.957L118.475 21.9187ZM110.303 33.4182L111.806 29.7475C112.91 27.0479 113.796 24.7951 114.371 23.1132C114.944 24.7951 115.828 27.0936 116.889 29.7475L118.392 33.4182H110.303ZM138.797 38.6354V41.5541H133.717V38.6354C133.717 36.5111 133.804 36.0687 132.743 34.3445L123.51 19.4425H129.254L134.51 28.201C135.349 29.5733 135.881 30.5004 136.364 31.5622C136.807 30.5004 137.336 29.6155 138.177 28.201L143.479 19.4425H149L139.767 34.348C138.706 36.073 138.797 36.5146 138.797 38.6389M58.1856 30.409C58.1856 37.7962 53.7222 41.9965 46.1236 41.9965C38.9217 41.9965 34.2849 38.1481 34.2849 30.4547C34.2849 22.7613 39.1865 19 46.3427 19C53.4997 19 58.1822 23.1132 58.1822 30.409M53.0124 30.4961C53.0124 25.6317 50.4068 23.2426 46.1658 23.2426C41.9249 23.2426 39.4513 25.6765 39.4513 30.3642C39.4513 35.4942 42.1889 37.7505 46.3884 37.7505C50.587 37.7505 53.0158 35.0966 53.0158 30.497M80.4959 37.3124V41.5575H68.5244C64.9028 41.5575 62.8682 39.6558 62.8682 36.3826V19.4425H67.9052V37.3124H80.4959ZM20.6747 42C16.7891 42 14.2706 41.6895 11.4873 41.1151V36.8242C13.8738 37.3986 16.1698 37.8419 20.6747 37.8419C24.5645 37.8419 25.7125 37.0019 25.7125 35.4528C25.7125 33.9927 24.6517 33.2406 20.4556 32.5333C12.9863 31.2517 11 29.1273 11 25.5446C11 21.2114 14.4897 19 20.7204 19C23.2811 19 26.4189 19.2648 29.2885 19.9298V24.2206C25.9765 23.4686 23.2803 23.1581 20.7169 23.1581C17.4463 23.1581 16.1664 23.6911 16.1664 25.2375C16.1664 26.564 17.0496 27.3618 21.8192 28.2467C29.2859 29.6181 30.8755 31.7847 30.8755 35.1009C30.8755 38.9485 27.9145 42 20.6721 42" fill="#0096FF"/>
</svg>
