<svg width="153" height="34" viewBox="0 0 153 34" fill="none" xmlns="http://www.w3.org/2000/svg">
<path d="M1.27502 22.8541C2.11794 24.8599 3.35359 26.6824 4.91136 28.2174C6.46913 29.7525 8.31851 30.97 10.3539 31.8005C12.3892 32.631 14.5706 33.0581 16.7735 33.0575C18.9764 33.0569 21.1575 32.6286 23.1924 31.797C25.2271 30.9667 27.0758 29.7495 28.6331 28.2149C30.1903 26.6803 31.4255 24.8584 32.2682 22.8532C33.1108 20.848 33.5444 18.6989 33.5441 16.5286C33.5438 14.3582 33.1097 12.2092 32.2665 10.2042C31.424 8.19886 30.1889 6.37668 28.6318 4.84175C27.0747 3.30682 25.226 2.08921 23.1914 1.25846C21.1568 0.427707 18.976 8.14341e-05 16.7737 1.16297e-08C14.5714 -8.14108e-05 12.3906 0.427383 10.3559 1.25799C6.24625 2.93546 2.98089 6.15294 1.27796 10.2028C-0.424966 14.2527 -0.426026 18.8034 1.27502 22.8541ZM19.5033 5.97432C19.51 7.71893 18.6266 8.27308 17.7004 8.82834L17.1156 9.14372L17.2936 9.32695C17.7055 9.7769 17.9625 10.3437 18.0276 10.9463C18.0928 11.5489 17.9629 12.1564 17.6564 12.6818L17.5607 12.8561L17.7297 12.9672C18.0168 13.1365 18.3284 13.262 18.6537 13.3392L18.8565 13.3859L18.9061 13.196C19.0245 12.7694 19.2399 12.3749 19.5358 12.0425C19.8318 11.71 20.2006 11.4483 20.6143 11.277C20.9164 11.1527 21.2392 11.0842 21.5664 11.0749L21.829 11.0616L21.6464 10.4397C21.3839 9.39914 21.1642 8.39413 22.4115 7.16035C22.7256 6.85517 23.0958 6.61169 23.5023 6.44295C24.9761 5.84439 26.6123 6.31524 27.0145 6.44295C27.2038 6.99821 27.8946 9.39025 26.2799 10.9772C25.971 11.3034 25.598 11.5641 25.1835 11.7434C24.4094 12.0621 23.6826 11.9178 22.9614 11.7368L22.3225 11.5535L22.3135 11.8134C22.2852 12.3559 22.1005 12.8791 21.7812 13.3218C21.4619 13.7646 21.0212 14.1084 20.5106 14.3131C20.3946 14.3596 20.2761 14.4 20.1557 14.4342L19.9585 14.4908L20.0024 14.6807C20.083 14.9999 20.2109 15.3057 20.3822 15.588L20.4949 15.7546L20.6695 15.6558C20.7792 15.5966 20.8921 15.5432 21.0075 15.4958C21.5161 15.2836 22.0757 15.2194 22.6201 15.3109C23.1645 15.4024 23.6708 15.6458 24.0792 16.0122L24.2629 16.1821L24.584 15.6091C24.9683 14.985 25.3795 14.3787 26.1514 14.0544C26.574 13.8925 27.0256 13.8169 27.4788 13.8323C29.7639 13.8323 30.991 16.0022 31.2502 16.5297C31.0428 16.9395 30.236 18.3732 28.7881 18.9662C28.3734 19.137 27.9283 19.2246 27.4788 19.2238C25.7086 19.2238 25.1452 18.3598 24.584 17.447L24.2629 16.8706L24.0736 17.0517C23.8307 17.2695 23.5522 17.4452 23.2499 17.5714C22.8351 17.7379 22.3874 17.8095 21.9404 17.7809C21.4934 17.7522 21.0589 17.624 20.6695 17.4059L20.4949 17.3104L20.3822 17.477C20.2117 17.7608 20.0841 18.0675 20.0036 18.3876L19.9596 18.5831L20.1501 18.6364C20.7448 18.7916 21.2742 19.1287 21.6621 19.5992C22.0501 20.0698 22.2766 20.6495 22.309 21.2549V21.5104L22.9479 21.3327C24.0026 21.0706 25.0156 20.8552 26.2686 22.09C27.881 23.6836 27.1903 26.0734 27.0021 26.6243C26.4387 26.813 24.0116 27.4938 22.4025 25.9069C21.1518 24.6731 21.376 23.6703 21.6318 22.6331L21.8177 22.0012H21.5586C20.9445 21.9688 20.3565 21.7459 19.8787 21.3643C19.4009 20.9828 19.0577 20.4621 18.8982 19.8768L18.8418 19.6802L18.6424 19.7291C18.3172 19.8077 18.0057 19.9339 17.7184 20.1033L17.546 20.2144L17.6486 20.3854C17.9559 20.9103 18.0867 21.5177 18.0221 22.1204C17.9576 22.7231 17.701 23.2902 17.2891 23.7403L17.1111 23.9268L17.6959 24.2455C18.6187 24.8008 19.4988 25.3561 19.4988 27.0962C19.4988 29.3417 17.2925 30.5499 16.7685 30.8109C16.2389 30.5566 14.0315 29.3483 14.0315 27.0896C14.0315 25.3505 14.9059 24.7952 15.8344 24.2411L16.417 23.9246L16.2378 23.7403C15.8256 23.2895 15.5686 22.7218 15.5039 22.1183C15.4391 21.5149 15.5698 20.9067 15.8772 20.381L15.9775 20.2144L15.8074 20.1033C15.5199 19.9334 15.208 19.8072 14.8823 19.7291L14.6828 19.6802L14.6299 19.8735C14.512 20.2991 14.2974 20.6928 14.0022 21.0245C13.707 21.3562 13.339 21.6173 12.9261 21.788C12.6208 21.9099 12.2973 21.9819 11.9684 22.0012L11.7092 22.0079L11.8895 22.6364C12.1554 23.6736 12.3751 24.6731 11.1244 25.9035C10.8096 26.2134 10.4354 26.4585 10.0235 26.6243C8.55866 27.2228 6.9293 26.7575 6.52366 26.6243C6.35576 26.1256 5.64588 23.6781 7.25608 22.09C7.56855 21.7665 7.94212 21.5062 8.35583 21.3238C9.12656 21.0128 9.84772 21.1528 10.5756 21.3305L11.2134 21.517L11.2258 21.2549C11.2534 20.7136 11.4364 20.1912 11.7536 19.7484C12.0708 19.3057 12.5091 18.9608 13.0174 18.7541C13.134 18.7059 13.2542 18.6665 13.3769 18.6364L13.5695 18.5808L13.5256 18.3876C13.4458 18.0678 13.3169 17.7619 13.1436 17.4803L13.0388 17.316L12.863 17.4148C12.7535 17.4746 12.6406 17.5284 12.525 17.5758C12.0173 17.7858 11.4593 17.8486 10.9166 17.7569C10.3739 17.6653 9.86903 17.4229 9.46122 17.0583L9.27192 16.884L8.95191 17.457C8.56429 18.0855 8.15639 18.6952 7.38228 19.0117C6.95886 19.1722 6.5072 19.2477 6.05378 19.2338C3.77651 19.2338 2.52239 17.0039 2.29027 16.5331C2.47393 16.1633 3.30439 14.6963 4.76923 14.0899C5.17728 13.9204 5.61545 13.8324 6.05829 13.8312C7.82511 13.8312 8.3964 14.6996 8.95642 15.6191L9.27643 16.1877L9.46235 16.0178C9.70596 15.7985 9.98714 15.6237 10.2928 15.5014C10.7052 15.3283 11.153 15.2528 11.6003 15.281C12.0476 15.3091 12.482 15.4401 12.8687 15.6635L13.0445 15.7557L13.1571 15.5891C13.3244 15.3047 13.4525 14.9996 13.538 14.6818L13.5842 14.4864L13.3859 14.4275C12.7915 14.2715 12.2628 13.9333 11.8762 13.4618C11.4896 12.9903 11.265 12.41 11.2348 11.8045L11.2269 11.5535L10.5914 11.7323C9.53559 11.9888 8.51922 12.2043 7.26847 10.9727C5.65489 9.3847 6.34675 6.99266 6.53267 6.43852C7.03297 6.2786 9.52432 5.56898 11.1334 7.1559C12.3887 8.39412 12.1644 9.39914 11.9053 10.4364L11.7182 11.0682H11.9785C12.5933 11.0992 13.1824 11.3212 13.6614 11.7024C14.1403 12.0837 14.4844 12.6045 14.6445 13.1904L14.693 13.3859L14.8947 13.3359C15.22 13.2588 15.5316 13.1334 15.8186 12.9639L15.991 12.8528L15.8885 12.6785C15.585 12.1532 15.4565 11.5473 15.521 10.9462C15.5855 10.3451 15.8397 9.77917 16.2479 9.32807L16.4203 9.14038L15.8445 8.82945C14.9228 8.27419 14.0417 7.71893 14.0417 5.97543C14.0417 3.72665 16.3054 2.49287 16.7787 2.25633C17.3105 2.51841 19.5089 3.72665 19.5089 5.97543L19.5033 5.97432Z" fill="#E1002A"/>
<path d="M40.1575 9.15495H42.535L53.0672 17.8491C53.685 18.3276 54.2572 18.8606 54.7766 19.4416C54.6864 18.22 54.6278 17.3527 54.6278 16.8985V9.15495H57.7603V23.897H55.3884L44.3942 14.7819C43.9504 14.4137 43.536 14.0124 43.1548 13.5814C43.2584 14.7264 43.2956 15.4971 43.2956 15.9268V23.897H40.1575V9.15495ZM62.1943 9.15495H77.5087V11.6691H65.6772V14.9551H77.4906V17.4738H65.6772V21.1285H77.6596V23.9047H62.1943V9.15495ZM84.8689 9.15495H95.8902C98.7072 9.15495 99.6086 9.86568 99.6086 12.6453V20.4189C99.6086 23.1951 98.7072 23.9058 95.8902 23.9058H84.8689C82.0587 23.9058 81.1584 23.1962 81.1584 20.4189V12.6453C81.1584 9.86568 82.0587 9.15495 84.8689 9.15495ZM96.1279 21.1285V11.7857H84.6345V21.1285H96.1279ZM102.093 9.15495H105.699L109.497 19.0385L113.467 9.15495H115.907L119.963 19.0385L123.59 9.15495H126.696L120.927 23.897H118.575L114.454 13.698L110.273 23.897H107.868L102.093 9.15161V9.15495ZM129.618 9.15495H133.098V23.897H129.618V9.15495ZM136.549 22.3012L147.014 11.7857H137.592V9.15495H152.612V10.6086L142.006 21.1285H152.612V23.9047H136.549V22.3012Z" fill="#767575"/>
</svg>
