<svg width="40" height="11" viewBox="0 0 40 11" fill="none" xmlns="http://www.w3.org/2000/svg">
<mask id="mask0_363_223" style="mask-type:luminance" maskUnits="userSpaceOnUse" x="0" y="0" width="40" height="11">
<path d="M0 0H39.9999V10.0189H0V0Z" fill="white"/>
</mask>
<g mask="url(#mask0_363_223)">
<path d="M14.9064 2.04932H12.7004C12.6274 2.0493 12.5567 2.07382 12.5012 2.11847C12.4456 2.16311 12.4088 2.22495 12.3974 2.29285L11.5049 7.61715C11.5008 7.64186 11.5024 7.66712 11.5097 7.69117C11.517 7.71523 11.5298 7.73751 11.5471 7.75648C11.5644 7.77546 11.5859 7.79067 11.61 7.80108C11.6342 7.81148 11.6605 7.81683 11.6871 7.81676H12.7405C12.8136 7.81676 12.8843 7.79218 12.9399 7.74746C12.9954 7.70274 13.0322 7.64081 13.0435 7.57283L13.2838 6.13704C13.2951 6.06904 13.3318 6.00706 13.3874 5.96232C13.4429 5.91759 13.5137 5.89304 13.5868 5.89312H14.2849C15.7384 5.89312 16.5769 5.2311 16.7959 3.91978C16.8946 3.34561 16.8 2.89476 16.5146 2.57916C16.201 2.23235 15.645 2.04932 14.9064 2.04932ZM15.1611 3.99376C15.0403 4.73863 14.4356 4.73863 13.8509 4.73863H13.518L13.7514 3.34754C13.7581 3.30673 13.7802 3.26953 13.8135 3.24268C13.8469 3.21582 13.8893 3.20108 13.9332 3.20111H14.0855C14.4839 3.20111 14.8597 3.20111 15.0538 3.41497C15.1697 3.54252 15.2053 3.73211 15.1611 3.99376ZM21.501 3.96987H20.4447C20.4009 3.9699 20.3586 3.98462 20.3253 4.01139C20.2919 4.03815 20.2698 4.07521 20.2629 4.11592L20.2163 4.39375L20.1426 4.29317C19.9133 3.98104 19.4035 3.87623 18.8946 3.87623C17.7269 3.87623 16.73 4.70857 16.5359 5.87617C16.4348 6.45803 16.5785 7.01486 16.9294 7.40328C17.2512 7.76011 17.7118 7.90924 18.26 7.90924C19.2005 7.90924 19.7225 7.3397 19.7225 7.3397L19.675 7.61599C19.6708 7.6407 19.6723 7.66598 19.6795 7.69007C19.6867 7.71416 19.6993 7.73651 19.7166 7.75555C19.7338 7.7746 19.7553 7.78991 19.7794 7.8004C19.8035 7.8109 19.8298 7.81635 19.8564 7.81637H20.8083C20.9594 7.81637 21.0871 7.7131 21.1113 7.57245L21.682 4.16986C21.6864 4.14517 21.6849 4.11988 21.6778 4.09575C21.6707 4.07163 21.6581 4.04925 21.6409 4.03018C21.6237 4.0111 21.6022 3.99579 21.5781 3.98531C21.5539 3.97483 21.5276 3.96943 21.501 3.96948V3.96987ZM20.0283 5.90507C19.9264 6.47306 19.4474 6.85417 18.8365 6.85417C18.5294 6.85417 18.2846 6.76168 18.127 6.58635C17.9714 6.41179 17.9116 6.16402 17.9611 5.88773C18.0565 5.32435 18.5437 4.93053 19.1452 4.93053C19.4453 4.93053 19.6889 5.02456 19.8494 5.20143C20.0107 5.38023 20.0746 5.62993 20.0283 5.90507ZM27.1274 3.96987H26.0658C26.0157 3.9699 25.9664 3.98143 25.9222 4.00346C25.878 4.02549 25.8401 4.05734 25.8119 4.09626L24.3478 6.12625L23.7271 4.17564C23.708 4.1162 23.6692 4.06411 23.6162 4.02705C23.5633 3.99 23.4991 3.96995 23.4331 3.96987H22.3895C22.3603 3.96989 22.3314 3.97646 22.3054 3.98904C22.2794 4.00162 22.257 4.01985 22.2399 4.04222C22.2229 4.06458 22.2117 4.09045 22.2074 4.11767C22.2031 4.14489 22.2057 4.17269 22.2151 4.19876L23.3844 7.42833L22.2851 8.88878C22.2654 8.9147 22.2537 8.94521 22.2513 8.97698C22.2489 9.00874 22.2558 9.04052 22.2714 9.06881C22.2869 9.0971 22.3104 9.1208 22.3394 9.13731C22.3683 9.15382 22.4015 9.16249 22.4354 9.16238H23.4958C23.5961 9.16238 23.6903 9.11614 23.7476 9.0383L27.2785 4.24154C27.2976 4.21558 27.3088 4.18519 27.3109 4.15365C27.313 4.12212 27.3059 4.09065 27.2903 4.06266C27.2748 4.03466 27.2513 4.01122 27.2226 3.99486C27.1939 3.9785 27.161 3.96986 27.1274 3.96987Z" fill="#253B80"/>
<path d="M30.6423 2.04911H28.4355C28.3626 2.0492 28.2921 2.07377 28.2367 2.11842C28.1813 2.16306 28.1446 2.22484 28.1333 2.29265L27.2408 7.61694C27.2366 7.6416 27.2382 7.66682 27.2454 7.69085C27.2526 7.71487 27.2653 7.73714 27.2826 7.75612C27.2998 7.77509 27.3212 7.79032 27.3453 7.80076C27.3694 7.81119 27.3956 7.81658 27.4222 7.81655H28.5546C28.6057 7.81639 28.655 7.79912 28.6937 7.76784C28.7324 7.73655 28.758 7.6933 28.7659 7.64584L29.0193 6.13684C29.0306 6.0689 29.0672 6.00697 29.1227 5.96224C29.1782 5.91751 29.2488 5.89292 29.3219 5.89291H30.02C31.4734 5.89291 32.3119 5.23089 32.531 3.91957C32.6301 3.34541 32.5351 2.89455 32.2497 2.57896C31.9365 2.23215 31.3805 2.04911 30.6423 2.04911ZM30.8966 3.99356C30.7762 4.73843 30.1719 4.73842 29.5864 4.73842H29.2539L29.4873 3.34733C29.4939 3.30646 29.5159 3.26917 29.5493 3.24229C29.5826 3.2154 29.6252 3.20071 29.6691 3.2009H29.8214C30.2198 3.2009 30.5956 3.2009 30.7901 3.41477C30.9056 3.54232 30.9408 3.73191 30.8966 3.99356ZM37.2361 3.96966H36.1806C36.0897 3.96966 36.0128 4.03132 35.9993 4.11571L35.9526 4.39354L35.8785 4.29297C35.6496 3.98084 35.1399 3.87603 34.6309 3.87603C33.4633 3.87603 32.4667 4.70837 32.2726 5.87596C32.1719 6.45783 32.3148 7.01465 32.6657 7.40308C32.9883 7.75991 33.4481 7.90903 33.9963 7.90903C34.9368 7.90903 35.4584 7.3395 35.4584 7.3395L35.4113 7.61579C35.4072 7.64055 35.4088 7.66586 35.416 7.68999C35.4233 7.71411 35.436 7.73646 35.4533 7.75551C35.4707 7.77455 35.4922 7.78984 35.5164 7.80031C35.5406 7.81078 35.5669 7.81619 35.5935 7.81617H36.5446C36.6177 7.81616 36.6883 7.79157 36.7438 7.74684C36.7993 7.70211 36.8359 7.64018 36.8472 7.57224L37.4187 4.16966C37.4229 4.14486 37.4213 4.11951 37.414 4.09537C37.4067 4.07122 37.394 4.04884 37.3766 4.02979C37.3592 4.01074 37.3377 3.99546 37.3134 3.98501C37.2892 3.97456 37.2628 3.9692 37.2361 3.96928V3.96966ZM35.7638 5.90486C35.6623 6.47286 35.1829 6.85396 34.572 6.85396C34.2657 6.85396 34.0201 6.76148 33.8625 6.58615C33.7065 6.41159 33.6475 6.16381 33.6966 5.88752C33.7924 5.32415 34.2788 4.93033 34.8807 4.93033C35.1804 4.93033 35.4244 5.02435 35.5849 5.20122C35.7466 5.38002 35.8105 5.62972 35.7638 5.90486ZM38.482 2.19477L37.5764 7.61656C37.5722 7.64124 37.5738 7.66647 37.581 7.69052C37.5882 7.71456 37.6009 7.73686 37.6181 7.75586C37.6354 7.77486 37.6568 7.79013 37.6809 7.80061C37.705 7.81108 37.7312 7.81652 37.7577 7.81655H38.6679C38.8194 7.81655 38.9475 7.71328 38.9709 7.57263L39.8638 2.24872C39.868 2.22402 39.8664 2.19877 39.8592 2.1747C39.852 2.15064 39.8393 2.12832 39.8221 2.10929C39.8049 2.09026 39.7835 2.07496 39.7594 2.06444C39.7353 2.05392 39.709 2.04842 39.6825 2.04834H38.663C38.6192 2.04841 38.5769 2.06321 38.5437 2.09007C38.5106 2.11692 38.4887 2.15406 38.482 2.19477Z" fill="#179BD7"/>
<path d="M2.34398 8.85141L2.51266 7.84297L2.13681 7.83449H0.342285L1.5894 0.392343C1.59313 0.369641 1.60538 0.348951 1.62394 0.334031C1.6425 0.31911 1.66612 0.310951 1.69053 0.311036H4.7162C5.72094 0.311036 6.4141 0.507561 6.77603 0.895988C6.94554 1.07826 7.05362 1.26862 7.10603 1.47786C7.16089 1.6975 7.16171 1.96031 7.10849 2.28091L7.10439 2.30403V2.50942L7.27431 2.59998C7.4172 2.67127 7.53061 2.75296 7.61782 2.8466C7.76275 3.00228 7.85651 3.19996 7.89623 3.43463C7.93717 3.67624 7.92366 3.96332 7.85651 4.28855C7.77913 4.66234 7.65426 4.98834 7.48516 5.255C7.33596 5.49368 7.13542 5.7004 6.8964 5.86191C6.67204 6.0122 6.40509 6.12587 6.10334 6.1987C5.81101 6.27038 5.47815 6.3066 5.11253 6.3066H4.87711C4.70842 6.3066 4.54506 6.36363 4.4165 6.46613C4.28834 6.56952 4.20332 6.71235 4.17658 6.8692L4.15897 6.95976L3.86091 8.73735L3.8474 8.80286C3.84371 8.82328 3.83757 8.83368 3.82856 8.84062C3.81982 8.84747 3.80883 8.85128 3.79745 8.85141H2.34398Z" fill="#253B80"/>
<path d="M7.43499 2.32764C7.42598 2.38236 7.41534 2.43785 7.40387 2.49488C7.00468 4.42314 5.63965 5.08901 3.89631 5.08901H3.00826C2.79536 5.08901 2.61521 5.23506 2.58245 5.43274L2.12799 8.14556L1.99902 8.91509C1.994 8.94557 1.99604 8.9767 2.00501 9.00637C2.01398 9.03603 2.02965 9.06352 2.05097 9.08694C2.07228 9.11037 2.09872 9.12918 2.12848 9.14208C2.15824 9.15499 2.19062 9.16168 2.22339 9.16171H3.79764C3.98433 9.16171 4.14278 9.03455 4.17185 8.86114L4.18741 8.786L4.48384 7.01573L4.50308 6.91824C4.51713 6.83434 4.56255 6.75792 4.63116 6.70274C4.69976 6.64756 4.78705 6.61726 4.8773 6.61728H5.11272C6.63824 6.61728 7.83214 6.03426 8.18138 4.34761C8.32713 3.64281 8.2518 3.0544 7.86612 2.64054C7.74377 2.51258 7.59768 2.40668 7.43499 2.32802V2.32764Z" fill="#179BD7"/>
<path d="M7.01744 2.17061C6.89001 2.13596 6.76037 2.10893 6.6293 2.08969C6.37044 2.05218 6.1088 2.03414 5.84689 2.03574H3.47507C3.38472 2.03543 3.29726 2.06569 3.22864 2.121C3.16002 2.17632 3.11482 2.25301 3.10127 2.33708L2.59685 5.34469L2.58252 5.43216C2.61527 5.23448 2.79542 5.08882 3.00832 5.08882H3.89637C5.63972 5.08882 7.00475 4.42218 7.40394 2.4943C7.41581 2.43727 7.42564 2.38178 7.43465 2.32745C7.32952 2.2755 7.21996 2.23194 7.10711 2.1972C7.07737 2.18788 7.04748 2.17902 7.01744 2.17061Z" fill="#222D65"/>
<path d="M3.10114 2.3375C3.11487 2.25356 3.16016 2.17706 3.22876 2.1219C3.29736 2.06674 3.38472 2.03658 3.47495 2.03693H5.84676C6.12763 2.03693 6.39007 2.05388 6.62918 2.09049C6.79116 2.11445 6.95092 2.15027 7.10698 2.19762C7.2249 2.23422 7.33421 2.27777 7.43493 2.32786C7.55367 1.61498 7.43411 1.12983 7.02469 0.690536C6.5735 0.20693 5.75914 0 4.71674 0H1.69107C1.47817 0 1.29638 0.14566 1.26363 0.344112L0.00299994 7.86255C-0.00292166 7.8975 -0.000717969 7.93325 0.00945894 7.96731C0.0196359 8.00138 0.037544 8.03297 0.0619478 8.05989C0.0863516 8.08682 0.11667 8.10844 0.150813 8.12327C0.184955 8.1381 0.222109 8.14578 0.259711 8.14578H2.12752L2.59672 5.34472L3.10114 2.33711V2.3375Z" fill="#253B80"/>
</g>
</svg>
