<svg width="26" height="18" viewBox="0 0 26 18" fill="none" xmlns="http://www.w3.org/2000/svg">
<g clip-path="url(#clip0_363_197)">
<path d="M0 3C0 1.34314 1.36948 0 3.05882 0H22.9412C24.6305 0 26 1.34314 26 3V15C26 16.6568 24.6305 18 22.9412 18H3.05882C1.36948 18 0 16.6568 0 15V3Z" fill="#1434CB"/>
<path d="M12.5534 5.41289L11.055 12.4716H9.23547L10.7339 5.41289H12.5534ZM20.099 9.97388L21.0623 7.31332L21.5975 9.97388H20.099ZM22.1326 12.4716H23.7916L22.3467 5.41289H20.7948C20.4737 5.41289 20.1526 5.63009 20.0455 5.95587L17.3698 12.4716H19.2428L19.6174 11.44H21.9186L22.1326 12.4716ZM17.4233 10.1368C17.4233 8.29065 14.9081 8.18205 14.9081 7.36761C14.9616 6.98752 15.2827 6.77034 15.6573 6.77034C16.2459 6.71604 16.8881 6.82463 17.4233 7.09613L17.7444 5.57579C17.2092 5.35859 16.6205 5.25 16.0854 5.25C14.3194 5.25 13.0351 6.22736 13.0351 7.58483C13.0351 8.61645 13.9448 9.15945 14.587 9.48525C15.2827 9.81098 15.5503 10.0282 15.4967 10.354C15.4967 10.8427 14.9616 11.0599 14.4264 11.0599C13.7842 11.0599 13.142 10.897 12.5534 10.6255L12.2323 12.1458C12.8745 12.4173 13.5702 12.5259 14.2124 12.5259C16.1925 12.5802 17.4233 11.6028 17.4233 10.1368ZM9.98465 5.41289L7.09486 12.4716H5.16833L3.72341 6.82463C3.72341 6.55315 3.50936 6.33596 3.29529 6.22736C2.76014 5.95587 2.17148 5.73868 1.5293 5.63009L1.58281 5.41289H4.63317C5.06129 5.41289 5.38238 5.73868 5.4359 6.11876L6.18511 10.1911L8.11166 5.41289H9.98465Z" fill="white"/>
</g>
<defs>
<clipPath id="clip0_363_197">
<rect width="26" height="18" fill="white"/>
</clipPath>
</defs>
</svg>
